<mxfile host="65bd71144e">
    <diagram id="7g7ZjOfzDb0z9ipdkM1g" name="Page-1">
        <mxGraphModel dx="1645" dy="758" grid="1" gridSize="10" guides="1" tooltips="1" connect="1" arrows="1" fold="1" page="1" pageScale="1" pageWidth="850" pageHeight="1100" background="#CCFFFF" math="0" shadow="0">
            <root>
                <mxCell id="0"/>
                <mxCell id="1" parent="0"/>
                <mxCell id="5" style="edgeStyle=none;html=1;exitX=1;exitY=0.25;exitDx=0;exitDy=0;entryX=0;entryY=0;entryDx=0;entryDy=27.5;entryPerimeter=0;strokeColor=#000000;" edge="1" parent="1" source="3" target="4">
                    <mxGeometry relative="1" as="geometry"/>
                </mxCell>
                <mxCell id="6" style="edgeStyle=none;html=1;exitX=1;exitY=0.75;exitDx=0;exitDy=0;entryX=0;entryY=0;entryDx=0;entryDy=52.5;entryPerimeter=0;strokeColor=#000000;" edge="1" parent="1" source="3" target="4">
                    <mxGeometry relative="1" as="geometry"/>
                </mxCell>
                <mxCell id="3" value="Data Sources" style="rounded=0;whiteSpace=wrap;html=1;strokeColor=#000000;" vertex="1" parent="1">
                    <mxGeometry x="50" y="110" width="80" height="390" as="geometry"/>
                </mxCell>
                <mxCell id="19" style="edgeStyle=none;html=1;exitX=1;exitY=0.5;exitDx=0;exitDy=0;exitPerimeter=0;strokeColor=#000000;" edge="1" parent="1" source="4" target="16">
                    <mxGeometry relative="1" as="geometry"/>
                </mxCell>
                <mxCell id="4" value="Raw" style="shape=cylinder3;whiteSpace=wrap;html=1;boundedLbl=1;backgroundOutline=1;size=15;strokeColor=#000000;" vertex="1" parent="1">
                    <mxGeometry x="210" y="260" width="60" height="80" as="geometry"/>
                </mxCell>
                <mxCell id="7" value="Ingestion&lt;br&gt;(Semi-structured data)" style="text;html=1;align=center;verticalAlign=middle;whiteSpace=wrap;rounded=0;fillColor=#0050ef;strokeColor=#001DBC;fontColor=#ffffff;" vertex="1" parent="1">
                    <mxGeometry x="150" y="160" width="130" height="60" as="geometry"/>
                </mxCell>
                <mxCell id="9" value="" style="swimlane;startSize=0;dashed=1;strokeColor=#000000;fillColor=default;" vertex="1" parent="1">
                    <mxGeometry x="310" y="90" width="400" height="430" as="geometry"/>
                </mxCell>
                <mxCell id="20" style="edgeStyle=none;html=1;exitX=1;exitY=0.5;exitDx=0;exitDy=0;entryX=0;entryY=0.5;entryDx=0;entryDy=0;strokeColor=#000000;" edge="1" parent="9" source="16" target="17">
                    <mxGeometry relative="1" as="geometry"/>
                </mxCell>
                <mxCell id="23" style="edgeStyle=none;html=1;exitX=1;exitY=0.75;exitDx=0;exitDy=0;entryX=0;entryY=0.5;entryDx=0;entryDy=0;strokeColor=#000000;" edge="1" parent="9" source="16" target="22">
                    <mxGeometry relative="1" as="geometry"/>
                </mxCell>
                <mxCell id="16" value="Staging" style="shape=internalStorage;whiteSpace=wrap;html=1;backgroundOutline=1;strokeColor=#000000;" vertex="1" parent="9">
                    <mxGeometry x="30" y="170" width="80" height="80" as="geometry"/>
                </mxCell>
                <mxCell id="21" style="edgeStyle=none;html=1;exitX=1;exitY=0.25;exitDx=0;exitDy=0;entryX=0;entryY=0.25;entryDx=0;entryDy=0;strokeColor=#000000;" edge="1" parent="9" source="17" target="18">
                    <mxGeometry relative="1" as="geometry"/>
                </mxCell>
                <mxCell id="17" value="Domain Core &lt;br&gt;(Facts and Dimensions w/ Star Schema)" style="shape=internalStorage;whiteSpace=wrap;html=1;backgroundOutline=1;strokeColor=#000000;" vertex="1" parent="9">
                    <mxGeometry x="145" y="80" width="110" height="100" as="geometry"/>
                </mxCell>
                <mxCell id="18" value="Domain Marts&lt;br&gt;(Reports)" style="shape=internalStorage;whiteSpace=wrap;html=1;backgroundOutline=1;strokeColor=#000000;" vertex="1" parent="9">
                    <mxGeometry x="290" y="90" width="80" height="80" as="geometry"/>
                </mxCell>
                <mxCell id="24" style="edgeStyle=none;html=1;exitX=1;exitY=0.25;exitDx=0;exitDy=0;entryX=0;entryY=0.75;entryDx=0;entryDy=0;strokeColor=#000000;" edge="1" parent="9" source="22" target="18">
                    <mxGeometry relative="1" as="geometry"/>
                </mxCell>
                <mxCell id="26" style="edgeStyle=none;html=1;exitX=1;exitY=0.5;exitDx=0;exitDy=0;entryX=0;entryY=0.588;entryDx=0;entryDy=0;entryPerimeter=0;strokeColor=#000000;" edge="1" parent="9" source="22" target="25">
                    <mxGeometry relative="1" as="geometry"/>
                </mxCell>
                <mxCell id="22" value="Domain Core &lt;br&gt;(Facts and Dimensions w/ Star Schema)" style="shape=internalStorage;whiteSpace=wrap;html=1;backgroundOutline=1;strokeColor=#000000;" vertex="1" parent="9">
                    <mxGeometry x="145" y="250" width="110" height="100" as="geometry"/>
                </mxCell>
                <mxCell id="25" value="Domain Marts&lt;br&gt;(Reports)" style="shape=internalStorage;whiteSpace=wrap;html=1;backgroundOutline=1;strokeColor=#000000;" vertex="1" parent="9">
                    <mxGeometry x="290" y="260" width="80" height="80" as="geometry"/>
                </mxCell>
                <mxCell id="30" value="Transformation&lt;br&gt;(Use dbt for DAG orchestration)" style="text;html=1;align=center;verticalAlign=middle;whiteSpace=wrap;rounded=0;fillColor=#0050ef;strokeColor=#001DBC;fontColor=#ffffff;" vertex="1" parent="9">
                    <mxGeometry x="5" y="20" width="130" height="60" as="geometry"/>
                </mxCell>
                <mxCell id="27" value="Data Consumers&amp;nbsp;&lt;br&gt;(Like Dashboards / Excel)" style="rounded=0;whiteSpace=wrap;html=1;strokeColor=#000000;" vertex="1" parent="1">
                    <mxGeometry x="750" y="110" width="80" height="390" as="geometry"/>
                </mxCell>
                <mxCell id="28" style="edgeStyle=none;html=1;exitX=1;exitY=0.5;exitDx=0;exitDy=0;entryX=0;entryY=0.25;entryDx=0;entryDy=0;strokeColor=#000000;" edge="1" parent="1" source="18" target="27">
                    <mxGeometry relative="1" as="geometry"/>
                </mxCell>
                <mxCell id="29" style="edgeStyle=none;html=1;exitX=1;exitY=0.5;exitDx=0;exitDy=0;entryX=0;entryY=0.75;entryDx=0;entryDy=0;strokeColor=#000000;" edge="1" parent="1" source="25" target="27">
                    <mxGeometry relative="1" as="geometry"/>
                </mxCell>
            </root>
        </mxGraphModel>
    </diagram>
</mxfile>